<svg width="19" height="18" viewBox="0 0 19 18" fill="none" xmlns="http://www.w3.org/2000/svg">
<path fill-rule="evenodd" clip-rule="evenodd" d="M3.65526 3.04307C3.79722 2.8583 4.01699 2.75 4.25 2.75H12.25C12.6642 2.75 13 3.08579 13 3.5C13 3.91421 12.6642 4.25 12.25 4.25H5.22621L6.82621 10.25H15.6738L17.2738 4.25H16.25C15.8358 4.25 15.5 3.91421 15.5 3.5C15.5 3.08579 15.8358 2.75 16.25 2.75H18.25C18.483 2.75 18.7028 2.8583 18.8447 3.04307C18.9867 3.22785 19.0347 3.4681 18.9747 3.69325L16.9747 11.1932C16.8871 11.5216 16.5898 11.75 16.25 11.75H6.25C5.91021 11.75 5.61287 11.5216 5.52532 11.1932L3.52532 3.69325C3.46529 3.4681 3.5133 3.22785 3.65526 3.04307Z" fill="#FFF8F0"/>
<path fill-rule="evenodd" clip-rule="evenodd" d="M0.5 1.5C0.5 1.08579 0.835786 0.75 1.25 0.75H3.75C4.09415 0.75 4.39414 0.984223 4.47761 1.3181L4.97761 3.3181C5.07807 3.71994 4.83375 4.12715 4.4319 4.22761C4.03006 4.32807 3.62285 4.08375 3.52239 3.6819L3.16442 2.25H1.25C0.835786 2.25 0.5 1.91421 0.5 1.5Z" fill="#FFF8F0"/>
<path fill-rule="evenodd" clip-rule="evenodd" d="M6.75 14.25C6.33579 14.25 6 14.5858 6 15C6 15.4142 6.33579 15.75 6.75 15.75C7.16421 15.75 7.5 15.4142 7.5 15C7.5 14.5858 7.16421 14.25 6.75 14.25ZM4.5 15C4.5 13.7574 5.50736 12.75 6.75 12.75C7.99264 12.75 9 13.7574 9 15C9 16.2426 7.99264 17.25 6.75 17.25C5.50736 17.25 4.5 16.2426 4.5 15Z" fill="#FFF8F0"/>
<path fill-rule="evenodd" clip-rule="evenodd" d="M15.75 14.25C15.3358 14.25 15 14.5858 15 15C15 15.4142 15.3358 15.75 15.75 15.75C16.1642 15.75 16.5 15.4142 16.5 15C16.5 14.5858 16.1642 14.25 15.75 14.25ZM13.5 15C13.5 13.7574 14.5074 12.75 15.75 12.75C16.9926 12.75 18 13.7574 18 15C18 16.2426 16.9926 17.25 15.75 17.25C14.5074 17.25 13.5 16.2426 13.5 15Z" fill="#FFF8F0"/>
</svg>
