<svg width="36" height="40" viewBox="0 0 36 40" fill="none" xmlns="http://www.w3.org/2000/svg">
<path fill-rule="evenodd" clip-rule="evenodd" d="M10.5551 6.27348C8.71267 8.04721 7.5 10.7182 7.5 14.3157C7.5 15.1441 6.82843 15.8157 6 15.8157C5.17157 15.8157 4.5 15.1441 4.5 14.3157C4.5 10.0068 5.97362 6.51984 8.47438 4.11227C10.9636 1.71587 14.3546 0.499878 18 0.499878C21.6454 0.499878 25.0364 1.71587 27.5256 4.11227C30.0264 6.51984 31.5 10.0068 31.5 14.3157C31.5 17.5042 29.8549 21.0193 27.9402 24.0856C25.9905 27.2079 23.6004 30.1127 21.8048 32.1358C19.7609 34.4387 16.2391 34.4387 14.1952 32.1358C12.5393 30.2701 10.3813 27.6583 8.52866 24.8197C8.08513 24.1401 7.65744 23.445 7.25727 22.7416C7.16125 22.5728 7.06678 22.4035 6.97402 22.2338C6.57679 21.5068 6.8441 20.5954 7.57108 20.1982C8.29806 19.801 9.20941 20.0683 9.60664 20.7953C9.69091 20.9495 9.77701 21.1038 9.86481 21.2581C10.2311 21.9019 10.6264 22.5448 11.0409 23.1801C12.7826 25.8486 14.8358 28.3381 16.4389 30.1444C17.2892 31.1025 18.7108 31.1025 19.5611 30.1444C21.3026 28.1822 23.571 25.4184 25.3956 22.4966C27.2551 19.5188 28.5 16.6144 28.5 14.3157C28.5 10.7182 27.2873 8.04721 25.4449 6.27348C23.591 4.48859 20.9821 3.49988 18 3.49988C15.0179 3.49988 12.409 4.48859 10.5551 6.27348Z" fill="#FFF8F0"/>
<path fill-rule="evenodd" clip-rule="evenodd" d="M18 9.49988C16.6193 9.49988 15.5 10.6192 15.5 11.9999C15.5 13.3806 16.6193 14.4999 18 14.4999C19.3807 14.4999 20.5 13.3806 20.5 11.9999C20.5 10.6192 19.3807 9.49988 18 9.49988ZM12.5 11.9999C12.5 8.96231 14.9624 6.49988 18 6.49988C21.0376 6.49988 23.5 8.96231 23.5 11.9999C23.5 15.0374 21.0376 17.4999 18 17.4999C14.9624 17.4999 12.5 15.0374 12.5 11.9999Z" fill="#FFF8F0"/>
<path fill-rule="evenodd" clip-rule="evenodd" d="M3.53326 32.8947C3.50017 32.9615 3.5 32.9925 3.5 33.0001C3.49995 33.0066 3.49949 33.0631 3.57996 33.186C3.66891 33.3218 3.84149 33.5129 4.14871 33.7398C4.77108 34.1997 5.76753 34.6769 7.1337 35.1039C9.84817 35.9521 13.6903 36.5001 18 36.5001C22.3097 36.5001 26.1518 35.9521 28.8663 35.1039C30.2325 34.6769 31.2289 34.1997 31.8513 33.7398C32.1585 33.5129 32.3311 33.3218 32.42 33.186C32.5005 33.0631 32.5001 33.0069 32.5 33.0004C32.5 32.9929 32.4998 32.9615 32.4667 32.8947C32.4307 32.8219 32.3553 32.7079 32.2062 32.5601C31.8987 32.2554 31.3714 31.8996 30.5776 31.5383C28.997 30.8191 26.659 30.2118 23.8118 29.8516L24.1882 26.8754C27.2046 27.2569 29.8666 27.9188 31.8202 28.8078C32.7934 29.2506 33.6666 29.7838 34.3179 30.4292C34.9737 31.0791 35.5 31.9454 35.5 33.0001C35.5 34.3898 34.6016 35.4379 33.634 36.1527C32.6371 36.8893 31.2904 37.4894 29.7611 37.9673C26.6847 38.9287 22.5268 39.5001 18 39.5001C13.4732 39.5001 9.31527 38.9287 6.23888 37.9673C4.70962 37.4894 3.36293 36.8893 2.366 36.1527C1.39844 35.4379 0.5 34.3898 0.5 33.0001C0.5 31.9454 1.02629 31.0791 1.68207 30.4292C2.33337 29.7838 3.20661 29.2506 4.17983 28.8078C6.13338 27.9188 8.79537 27.2569 11.8118 26.8754L12.1882 29.8516C9.34097 30.2118 7.00296 30.8191 5.42242 31.5383C4.6286 31.8996 4.10127 32.2554 3.79378 32.5601C3.64467 32.7079 3.56933 32.8219 3.53326 32.8947Z" fill="#FFF8F0"/>
</svg>
